<svg width="300" height="85" viewBox="0 0 300 85" fill="none" xmlns="http://www.w3.org/2000/svg">
<g clip-path="url(#clip0_1_2)">
<path d="M8.6515 74.032V72.688C10.2728 72.5173 11.6595 72.0267 12.8115 71.216C14.0062 70.4053 14.9235 68.9973 15.5635 66.992C16.2035 64.9867 16.5235 62.1707 16.5235 58.544V23.472C16.5235 21.8933 16.3955 20.7413 16.1395 20.016C15.9262 19.248 15.4782 18.736 14.7955 18.48C14.1128 18.1813 13.1315 18.0107 11.8515 17.968V16.688C12.9182 16.7307 14.3688 16.7733 16.2035 16.816C18.0382 16.8587 19.9582 16.88 21.9635 16.88C24.0115 16.88 25.9955 16.8587 27.9155 16.816C29.8782 16.7733 31.4995 16.7307 32.7795 16.688V17.968C31.4568 18.0107 30.4542 18.1813 29.7715 18.48C29.0888 18.736 28.6408 19.248 28.4275 20.016C28.2142 20.7413 28.1075 21.8933 28.1075 23.472V46.896C28.1075 48.6453 28.1075 50.544 28.1075 52.592C28.1075 54.5973 28.0222 56.56 27.8515 58.48C27.7235 60.4 27.4462 62.1067 27.0195 63.6C26.1235 66.544 24.1608 69.0187 21.1315 71.024C18.1022 73.0293 13.9422 74.032 8.6515 74.032ZM48.9225 11.952V33.328C49.9892 31.3653 51.3972 29.9787 53.1465 29.168C54.9385 28.3573 56.9865 27.952 59.2905 27.952C61.1678 27.952 62.6612 28.1867 63.7705 28.656C64.9225 29.1253 65.7972 29.7227 66.3945 30.448C67.0772 31.2587 67.5678 32.304 67.8665 33.584C68.1652 34.864 68.3145 36.592 68.3145 38.768V56.048C68.3145 57.84 68.5918 59.056 69.1465 59.696C69.7438 60.336 70.7465 60.656 72.1545 60.656V62C71.3438 61.9573 70.0852 61.9147 68.3785 61.872C66.7145 61.7867 65.0718 61.744 63.4505 61.744C61.7438 61.744 60.0798 61.7867 58.4585 61.872C56.8372 61.9147 55.5998 61.9573 54.7465 62V60.656C55.9412 60.656 56.7732 60.336 57.2425 59.696C57.7118 59.056 57.9465 57.84 57.9465 56.048V35.696C57.9465 34.7147 57.8398 33.8827 57.6265 33.2C57.4132 32.4747 57.0505 31.9413 56.5385 31.6C56.0692 31.216 55.3652 31.024 54.4265 31.024C53.4452 31.024 52.5278 31.28 51.6745 31.792C50.8638 32.2613 50.2025 32.9653 49.6905 33.904C49.1785 34.8 48.9225 35.8453 48.9225 37.04V56.048C48.9225 57.84 49.1572 59.056 49.6265 59.696C50.1385 60.336 50.9705 60.656 52.1225 60.656V62C51.3545 61.9573 50.2025 61.9147 48.6665 61.872C47.1305 61.7867 45.5518 61.744 43.9305 61.744C42.2238 61.744 40.4745 61.7867 38.6825 61.872C36.9332 61.9147 35.6105 61.9573 34.7145 62V60.656C36.1225 60.656 37.1038 60.336 37.6585 59.696C38.2558 59.056 38.5545 57.84 38.5545 56.048V19.632C38.5545 17.712 38.2772 16.304 37.7225 15.408C37.2105 14.4693 36.2078 14 34.7145 14V12.656C36.0798 12.784 37.4025 12.848 38.6825 12.848C40.6452 12.848 42.4798 12.784 44.1865 12.656C45.8932 12.4853 47.4718 12.2507 48.9225 11.952ZM83.1135 62.448C81.1508 62.448 79.5295 62.0853 78.2495 61.36C76.9695 60.592 76.0308 59.5893 75.4335 58.352C74.8362 57.1147 74.5375 55.792 74.5375 54.384C74.5375 52.592 74.9428 51.12 75.7535 49.968C76.6068 48.816 77.6948 47.8987 79.0175 47.216C80.3402 46.4907 81.7268 45.8933 83.1775 45.424C84.6282 44.9547 86.0148 44.5067 87.3375 44.08C88.6602 43.6107 89.7268 43.0773 90.5375 42.48C91.3482 41.84 91.7535 41.0293 91.7535 40.048V34.736C91.7535 33.7973 91.6042 32.9227 91.3055 32.112C91.0495 31.2587 90.5588 30.576 89.8335 30.064C89.1508 29.5093 88.1908 29.232 86.9535 29.232C86.1855 29.232 85.4388 29.3387 84.7135 29.552C83.9882 29.7653 83.3482 30.1067 82.7935 30.576C84.1588 31.0453 85.1615 31.7493 85.8015 32.688C86.4842 33.6267 86.8255 34.672 86.8255 35.824C86.8255 37.4027 86.2708 38.6613 85.1615 39.6C84.0948 40.496 82.8148 40.944 81.3215 40.944C79.7002 40.944 78.4415 40.432 77.5455 39.408C76.6922 38.384 76.2655 37.1467 76.2655 35.696C76.2655 34.416 76.5855 33.3493 77.2255 32.496C77.8655 31.6 78.8042 30.7893 80.0415 30.064C81.2788 29.3387 82.7722 28.8053 84.5215 28.464C86.2708 28.1227 88.1268 27.952 90.0895 27.952C92.0948 27.952 93.9295 28.1653 95.5935 28.592C97.3002 28.976 98.7508 29.7653 99.9455 30.96C100.884 31.9413 101.482 33.136 101.738 34.544C101.994 35.952 102.122 37.744 102.122 39.92V57.2C102.122 58.2667 102.207 59.0133 102.378 59.44C102.591 59.824 102.911 60.016 103.338 60.016C103.722 60.016 104.084 59.9093 104.426 59.696C104.767 59.4827 105.108 59.248 105.45 58.992L106.154 60.08C105.215 60.848 104.106 61.4453 102.826 61.872C101.546 62.256 100.159 62.448 98.6655 62.448C96.9588 62.448 95.6148 62.2347 94.6335 61.808C93.6948 61.3387 93.0122 60.72 92.5855 59.952C92.2015 59.184 91.9882 58.3307 91.9455 57.392C91.0068 58.928 89.8335 60.1653 88.4255 61.104C87.0175 62 85.2468 62.448 83.1135 62.448ZM88.4255 57.84C89.1082 57.84 89.7055 57.712 90.2175 57.456C90.7722 57.1573 91.2842 56.6667 91.7535 55.984V42.672C91.4122 43.2693 90.9428 43.8453 90.3455 44.4C89.7908 44.912 89.1935 45.4453 88.5535 46C87.9135 46.512 87.2948 47.088 86.6975 47.728C86.1428 48.368 85.6735 49.136 85.2895 50.032C84.9482 50.8853 84.7775 51.9307 84.7775 53.168C84.7775 54.832 85.1188 56.0267 85.8015 56.752C86.4842 57.4773 87.3588 57.84 88.4255 57.84ZM130.628 27.952C132.079 27.952 133.231 28.272 134.084 28.912C134.937 29.5093 135.556 30.2987 135.94 31.28C136.324 32.2187 136.516 33.1573 136.516 34.096C136.516 35.8453 136.004 37.2533 134.98 38.32C133.999 39.3867 132.697 39.92 131.076 39.92C129.369 39.92 128.068 39.536 127.172 38.768C126.276 37.9573 125.828 36.8907 125.828 35.568C125.828 34.2453 126.105 33.1573 126.66 32.304C127.257 31.4507 127.983 30.7253 128.836 30.128C128.196 30.0427 127.577 30.128 126.98 30.384C126.297 30.5547 125.657 30.8747 125.06 31.344C124.463 31.8133 123.951 32.368 123.524 33.008C123.097 33.648 122.756 34.352 122.5 35.12C122.287 35.8453 122.18 36.592 122.18 37.36V55.408C122.18 57.456 122.628 58.8427 123.524 59.568C124.463 60.2933 125.935 60.656 127.94 60.656V62C126.959 61.9573 125.508 61.9147 123.588 61.872C121.668 61.7867 119.684 61.744 117.636 61.744C115.801 61.744 113.945 61.7867 112.068 61.872C110.233 61.9147 108.868 61.9573 107.972 62V60.656C109.38 60.656 110.361 60.336 110.916 59.696C111.513 59.056 111.812 57.84 111.812 56.048V35.824C111.812 33.904 111.535 32.496 110.98 31.6C110.425 30.6613 109.423 30.192 107.972 30.192V28.848C109.337 28.976 110.66 29.04 111.94 29.04C113.86 29.04 115.673 28.976 117.38 28.848C119.129 28.6773 120.729 28.4427 122.18 28.144V33.392C122.692 32.2827 123.353 31.3227 124.164 30.512C125.017 29.7013 125.977 29.0827 127.044 28.656C128.153 28.1867 129.348 27.952 130.628 27.952ZM181.321 16.688V17.904C179.913 18.2453 178.377 18.9067 176.713 19.888C175.049 20.8267 173.278 22.3627 171.401 24.496L159.561 38.32L163.977 32.304L179.145 56.816C179.742 57.7547 180.34 58.5227 180.937 59.12C181.577 59.7173 182.409 60.2507 183.433 60.72V62C181.769 61.9147 179.977 61.872 178.057 61.872C176.137 61.8293 174.345 61.808 172.681 61.808C171.742 61.808 170.59 61.8293 169.225 61.872C167.86 61.872 166.132 61.9147 164.041 62V60.72C165.918 60.6347 167.028 60.4 167.369 60.016C167.71 59.632 167.561 58.9067 166.921 57.84L157.577 42.48C157.065 41.584 156.596 40.9227 156.169 40.496C155.785 40.0693 155.401 39.7707 155.017 39.6C154.633 39.3867 154.121 39.2587 153.481 39.216V37.936C155.358 37.8507 157.086 37.2747 158.665 36.208C160.244 35.1413 162.036 33.4347 164.041 31.088L167.049 27.568C168.756 25.6053 169.694 23.92 169.865 22.512C170.078 21.104 169.716 19.9947 168.777 19.184C167.881 18.3733 166.601 17.9467 164.937 17.904V16.688C166.046 16.7307 167.113 16.7733 168.137 16.816C169.161 16.816 170.206 16.8373 171.273 16.88C172.382 16.88 173.641 16.88 175.049 16.88C176.372 16.88 177.545 16.8587 178.569 16.816C179.593 16.7733 180.51 16.7307 181.321 16.688ZM158.537 16.688V17.968C157.214 18.0107 156.212 18.1813 155.529 18.48C154.846 18.736 154.398 19.248 154.185 20.016C153.972 20.7413 153.865 21.8933 153.865 23.472V55.216C153.865 56.752 153.972 57.904 154.185 58.672C154.441 59.44 154.889 59.952 155.529 60.208C156.212 60.464 157.214 60.6347 158.537 60.72V62C157.342 61.9147 155.806 61.872 153.929 61.872C152.094 61.8293 150.238 61.808 148.361 61.808C146.185 61.808 144.137 61.8293 142.217 61.872C140.297 61.872 138.761 61.9147 137.609 62V60.72C138.932 60.6347 139.913 60.464 140.553 60.208C141.236 59.952 141.684 59.44 141.897 58.672C142.153 57.904 142.281 56.752 142.281 55.216V23.472C142.281 21.8933 142.153 20.7413 141.897 20.016C141.684 19.248 141.236 18.736 140.553 18.48C139.913 18.1813 138.932 18.0107 137.609 17.968V16.688C138.761 16.7307 140.297 16.7733 142.217 16.816C144.137 16.8587 146.185 16.88 148.361 16.88C150.238 16.88 152.094 16.8587 153.929 16.816C155.806 16.7733 157.342 16.7307 158.537 16.688ZM197.985 11.952V33.328C199.052 31.3653 200.46 29.9787 202.209 29.168C204.001 28.3573 206.049 27.952 208.353 27.952C210.23 27.952 211.724 28.1867 212.833 28.656C213.985 29.1253 214.86 29.7227 215.457 30.448C216.14 31.2587 216.63 32.304 216.929 33.584C217.228 34.864 217.377 36.592 217.377 38.768V56.048C217.377 57.84 217.654 59.056 218.209 59.696C218.806 60.336 219.809 60.656 221.217 60.656V62C220.406 61.9573 219.148 61.9147 217.441 61.872C215.777 61.7867 214.134 61.744 212.513 61.744C210.806 61.744 209.142 61.7867 207.521 61.872C205.9 61.9147 204.662 61.9573 203.809 62V60.656C205.004 60.656 205.836 60.336 206.305 59.696C206.774 59.056 207.009 57.84 207.009 56.048V35.696C207.009 34.7147 206.902 33.8827 206.689 33.2C206.476 32.4747 206.113 31.9413 205.601 31.6C205.132 31.216 204.428 31.024 203.489 31.024C202.508 31.024 201.59 31.28 200.737 31.792C199.926 32.2613 199.265 32.9653 198.753 33.904C198.241 34.8 197.985 35.8453 197.985 37.04V56.048C197.985 57.84 198.22 59.056 198.689 59.696C199.201 60.336 200.033 60.656 201.185 60.656V62C200.417 61.9573 199.265 61.9147 197.729 61.872C196.193 61.7867 194.614 61.744 192.993 61.744C191.286 61.744 189.537 61.7867 187.745 61.872C185.996 61.9147 184.673 61.9573 183.777 62V60.656C185.185 60.656 186.166 60.336 186.721 59.696C187.318 59.056 187.617 57.84 187.617 56.048V19.632C187.617 17.712 187.34 16.304 186.785 15.408C186.273 14.4693 185.27 14 183.777 14V12.656C185.142 12.784 186.465 12.848 187.745 12.848C189.708 12.848 191.542 12.784 193.249 12.656C194.956 12.4853 196.534 12.2507 197.985 11.952ZM264.151 74.032V72.688C265.773 72.5173 267.16 72.0267 268.312 71.216C269.506 70.4053 270.424 68.9973 271.064 66.992C271.704 64.9867 272.024 62.1707 272.024 58.544V23.472C272.024 21.8933 271.896 20.7413 271.64 20.016C271.426 19.248 270.978 18.736 270.296 18.48C269.613 18.1813 268.632 18.0107 267.352 17.968V16.688C268.418 16.7307 269.869 16.7733 271.704 16.816C273.538 16.8587 275.458 16.88 277.464 16.88C279.512 16.88 281.496 16.8587 283.416 16.816C285.378 16.7733 287 16.7307 288.28 16.688V17.968C286.957 18.0107 285.954 18.1813 285.272 18.48C284.589 18.736 284.141 19.248 283.928 20.016C283.714 20.7413 283.608 21.8933 283.608 23.472V46.896C283.608 48.6453 283.608 50.544 283.608 52.592C283.608 54.5973 283.522 56.56 283.352 58.48C283.224 60.4 282.946 62.1067 282.52 63.6C281.624 66.544 279.661 69.0187 276.632 71.024C273.602 73.0293 269.442 74.032 264.151 74.032Z" fill="#0E1218"/>
<path d="M268.094 46C268.094 57.598 258.692 67 247.094 67C235.496 67 226.094 57.598 226.094 46C226.094 34.402 235.496 25 247.094 25C258.692 25 268.094 34.402 268.094 46ZM233.97 46C233.97 53.248 239.846 59.1236 247.094 59.1236C254.342 59.1236 260.218 53.248 260.218 46C260.218 38.752 254.342 32.8764 247.094 32.8764C239.846 32.8764 233.97 38.752 233.97 46Z" fill="#0E1218"/>
<path d="M234.328 57.9644C235.595 56.799 237.52 56.7218 238.877 57.7821C240.245 58.8504 240.63 60.7559 239.784 62.2713L230.157 79.5265C228.907 81.7671 226.516 83.1283 223.951 83.0597L223.649 83.0517C220.411 82.9651 217.723 80.5225 217.328 77.3071C217.071 75.2115 217.84 73.1204 219.395 71.6916L234.328 57.9644Z" fill="#0E1218"/>
</g>
<defs>
<clipPath id="clip0_1_2">
<rect width="300" height="85" fill="white"/>
</clipPath>
</defs>
</svg>
